<svg xmlns="http://www.w3.org/2000/svg" width="22.5" height="41.617" viewBox="0 0 22.5 41.617"><g transform="translate(0 0)"><g transform="translate(0)"><path d="M43.73.009,38.333,0c-6.063,0-9.981,4.02-9.981,10.242v4.722H22.926a.849.849,0,0,0-.849.849v6.842a.849.849,0,0,0,.849.849h5.426V40.768a.848.848,0,0,0,.849.849h7.08a.849.849,0,0,0,.849-.849V23.5h6.344a.848.848,0,0,0,.849-.849l0-6.842a.849.849,0,0,0-.849-.849H37.129v-4c0-1.924.458-2.9,2.965-2.9h3.635a.848.848,0,0,0,.848-.849V.857A.849.849,0,0,0,43.73.009Z" transform="translate(-22.077)" fill="#fff"/></g></g></svg>