<svg xmlns="http://www.w3.org/2000/svg" width="33.75" height="32.256" viewBox="0 0 33.75 32.256"><g transform="translate(0 0)"><rect width="7.251" height="21.775" transform="translate(0.417 10.481)" fill="#fff"/><path d="M171.395,141.825a7.8,7.8,0,0,0-6.042-2.494,8.708,8.708,0,0,0-2.516.341,5.709,5.709,0,0,0-1.912.956,8.186,8.186,0,0,0-2.1,2.3v-3.1H151.6l.022,1.055q.022,1.055.022,6.5t-.044,14.216h7.229V149.46a5.307,5.307,0,0,1,.242-1.78,4.667,4.667,0,0,1,1.4-1.878,3.558,3.558,0,0,1,2.318-.758,3.126,3.126,0,0,1,2.78,1.307,6.357,6.357,0,0,1,.89,3.615V161.61h7.229v-12.48Q173.679,144.318,171.395,141.825Z" transform="translate(-139.93 -129.355)" fill="#fff"/><path d="M4.087,9.708a4.137,4.137,0,0,0-2.955,1.066A3.538,3.538,0,0,0,0,13.465a3.6,3.6,0,0,0,1.1,2.68A3.965,3.965,0,0,0,4,17.222h.044A4.14,4.14,0,0,0,7.02,16.146a3.478,3.478,0,0,0,1.11-2.68,3.665,3.665,0,0,0-1.121-2.692A4.018,4.018,0,0,0,4.087,9.708Z" transform="translate(0 -9.708)" fill="#fff"/></g></svg>