<svg xmlns="http://www.w3.org/2000/svg" width="60" height="60" viewBox="0 0 60 60"><g transform="translate(-0.47)"><circle cx="30" cy="30" r="30" transform="translate(0.47)" fill="#366377"/><g transform="translate(15.47 11.25)"><g transform="translate(0 0)"><path d="M77.7,15.732a21.483,21.483,0,0,0,.248-2.93A9.911,9.911,0,0,0,75.29,5.745c.63-3.519-.1-5.119-.446-5.667-1.26-.447-4.383,1.154-6.089,2.281-2.782-.814-8.661-.735-10.866.211C53.821-.344,51.669.1,51.669.1A8.584,8.584,0,0,0,51.3,6.244c-1.338,1.706-2.336,2.912-2.336,6.11a18.89,18.89,0,0,0,.128,2.186c1.153,6.061,5.955,8.675,10.672,9.126a4.247,4.247,0,0,0-1.68,2.743A5.478,5.478,0,0,1,54,26.738c-1.955-.618-2.7-4.489-5.631-3.937-.633.119-.508.536.041.893a5.757,5.757,0,0,1,2.379,2.836,4.8,4.8,0,0,0,4.85,3.291,14.83,14.83,0,0,0,2.232-.155s.025,3.011.025,4.185c0,1.351-1.824,1.731-1.824,2.379,0,.258.6.282,1.089.282.959,0,2.953-.8,2.953-2.2,0-1.116.018-4.866.018-5.523a2.12,2.12,0,0,1,.769-1.892s.094,7.661-.185,8.688c-.327,1.208-.921,1.036-.921,1.574,0,.8,2.4.2,3.193-1.56.615-1.371.34-8.884.34-8.884l.641-.014s.007,3.441-.015,5.012c-.023,1.628-.191,3.686.776,4.658.635.639,2.579,1.76,2.579.735,0-.594-1.362-1.084-1.362-2.693V27c.827,0,1,2.436,1,2.436l.3,4.525a2.309,2.309,0,0,0,1.784,2.34c.7.245,2.2.312,2.266-.1s-1.8-1.022-1.82-2.3c-.01-.778.035-1.234.035-4.62s-.455-4.636-2.039-5.633C72.07,23.178,76.841,21.127,77.7,15.732Z" transform="translate(-47.949 0)" fill="#fff"/></g></g></g></svg>